<?xml version="1.0" encoding="UTF-8" standalone="no"?><!DOCTYPE svg PUBLIC "-//W3C//DTD SVG 1.1//EN" "http://www.w3.org/Graphics/SVG/1.1/DTD/svg11.dtd"><svg width="100%" height="100%" viewBox="0 0 3125 1459" version="1.1" xmlns="http://www.w3.org/2000/svg" xmlns:xlink="http://www.w3.org/1999/xlink" xml:space="preserve" xmlns:serif="http://www.serif.com/" style="fill-rule:evenodd;clip-rule:evenodd;stroke-linecap:round;stroke-miterlimit:3;"><g id="Product_Icon_Plate"><g><path d="M1034.16,226.062c0,-45.717 -37.116,-82.833 -82.833,-82.833l-426,0c-45.717,0 -82.834,37.116 -82.834,82.833l0,1006.21c0,45.717 37.117,82.834 82.834,82.834l426,0c45.717,0 82.833,-37.117 82.833,-82.834l0,-1006.21Z" style="fill:#fff;"/><clipPath id="_clip1"><path d="M1034.16,226.062c0,-45.717 -37.116,-82.833 -82.833,-82.833l-426,0c-45.717,0 -82.834,37.116 -82.834,82.833l0,1006.21c0,45.717 37.117,82.834 82.834,82.834l426,0c45.717,0 82.833,-37.117 82.833,-82.834l0,-1006.21Z"/></clipPath><g clip-path="url(#_clip1)"><path d="M671.665,205.729l137.5,0" style="fill:none;stroke:#000;stroke-width:25px;"/><circle cx="740.415" cy="1224.48" r="47.917" style="fill:#fff;stroke:#000;stroke-width:21.3px;"/><circle cx="740.415" cy="574.479" r="118.75" style="fill:none;"/><clipPath id="_clip2"><circle cx="740.415" cy="574.479" r="118.75"/></clipPath><g clip-path="url(#_clip2)"><circle cx="740.415" cy="416.145" r="168.75" style="fill:none;stroke:#000;stroke-width:25px;"/><circle cx="740.415" cy="661.979" r="77.083" style="fill:none;stroke:#000;stroke-width:25px;"/></g><circle cx="740.415" cy="574.479" r="118.75" style="fill:none;stroke:#000;stroke-width:27.94px;"/></g><path d="M1034.16,226.062c0,-45.717 -37.116,-82.833 -82.833,-82.833l-426,0c-45.717,0 -82.834,37.116 -82.834,82.833l0,1006.21c0,45.717 37.117,82.834 82.834,82.834l426,0c45.717,0 82.833,-37.117 82.833,-82.834l0,-1006.21Z" style="fill:none;stroke:#000;stroke-width:25px;stroke-linecap:butt;"/><g><path d="M1999.46,800.091l-81.318,0c-8.132,-21.685 0,2.71 -70.476,-168.058c-35.238,-84.028 -111.135,-143.661 -200.584,-157.214c-27.106,-2.711 -5.422,-2.711 -417.433,-2.711c-103.002,0 -197.873,62.344 -238.532,159.925c-70.476,170.768 -75.897,146.373 -84.029,168.058l-67.765,0c-18.974,0 -32.527,16.263 -29.817,32.527l5.422,32.527c2.71,16.264 18.974,27.106 35.237,27.106l54.212,0l0,233.112l1030.03,0l0,-233.112l56.923,0c16.263,0 32.527,-10.842 32.527,-27.106l5.421,-32.527c2.711,-16.264 -13.553,-32.527 -29.816,-32.527Z" style="fill:#fad9eb;fill-rule:nonzero;"/><path d="M1842.25,930.199c0,43.37 -35.238,75.897 -75.897,75.897c-43.37,0 -75.897,-35.238 -75.897,-75.897c0,-40.659 35.238,-75.896 75.897,-75.896c40.659,0 75.897,35.237 75.897,75.896Z" style="fill:#f39eca;fill-rule:nonzero;"/><path d="M1151.05,930.199c0,43.37 -35.238,75.897 -75.897,75.897c-43.369,0 -75.897,-35.238 -75.897,-75.897c0,-40.659 35.238,-75.896 75.897,-75.896c43.37,0 75.897,35.237 75.897,75.896Z" style="fill:#f39eca;fill-rule:nonzero;"/><path d="M1601.01,1071.15l-363.22,0c-5.421,0 -8.132,-2.711 -8.132,-8.132l0,-78.608c0,-5.421 2.711,-8.131 8.132,-8.131l363.22,0c5.422,0 8.132,2.71 8.132,8.131l0,78.608c0,5.421 -2.71,8.132 -8.132,8.132Z" style="fill:#ec57a2;fill-rule:nonzero;"/><g><path d="M1744.67,1190.42l0,94.871c0,16.264 13.553,29.817 29.817,29.817l127.398,0c16.264,0 32.527,-13.553 32.527,-29.817l0,-94.871l-189.742,0Z" style="fill:#ec57a2;fill-rule:nonzero;"/><path d="M904.381,1190.42l0,94.871c0,16.264 13.553,29.817 29.817,29.817l127.398,0c16.264,0 29.817,-13.553 32.527,-29.817l0,-94.871l-189.742,0Z" style="fill:#ec57a2;fill-rule:nonzero;"/></g><rect x="904.381" y="1125.36" width="1030.03" height="81.318" style="fill:#f39eca;"/><path d="M1774.48,661.85c-27.106,-67.765 -94.871,-119.266 -168.057,-119.266l-371.352,0c-73.187,0 -140.952,51.501 -168.058,119.266l-48.79,124.688l805.048,0l-48.791,-124.688Z" style="fill:#f49ac7;fill-rule:nonzero;"/><path d="M1235.08,542.584c-73.187,0 -140.952,51.501 -168.058,119.266l-48.79,124.688l311.718,0l243.954,-243.954l-338.824,0Z" style="fill:url(#_Linear3);fill-rule:nonzero;"/></g><g><g><path d="M2159.16,1315.11l33.333,0" style="fill:none;stroke:#000;stroke-width:25px;"/><path d="M2230,1315.11l79.167,0" style="fill:none;stroke:#000;stroke-width:25px;"/><path d="M2371.66,1315.11l79.167,0" style="fill:none;stroke:#000;stroke-width:25px;"/><path d="M2513.33,1315.11l79.166,0" style="fill:none;stroke:#000;stroke-width:25px;"/><path d="M2659.16,1315.11c0,0 24.469,0 63.021,0c3.72,0 7.333,-0.153 10.838,-0.454" style="fill:none;stroke:#000;stroke-width:25px;"/><path d="M2798.57,1273.25c5.859,-12.157 8.936,-26.742 8.936,-43.461c0,-16.648 -3.051,-31.18 -8.861,-43.306" style="fill:none;stroke:#000;stroke-width:25px;"/><path d="M2750.07,1147.77c-8.472,-2.177 -17.788,-3.298 -27.881,-3.298c-15.223,0 -34.772,0 -57.389,0" style="fill:none;stroke:#000;stroke-width:25px;"/><path d="M2609.16,1144.47c-25.379,0 -50.926,0 -79.167,0" style="fill:none;stroke:#000;stroke-width:25px;"/><path d="M2465.19,1144.47l-88.885,0" style="fill:none;stroke:#000;stroke-width:25px;"/><path d="M2314.94,1143.46c-31.592,-4.286 -52.618,-22.001 -60.562,-50.628" style="fill:none;stroke:#000;stroke-width:25px;"/><path d="M2253.21,1041.28c7.901,-36.097 35.195,-56.382 77.412,-56.382" style="fill:none;stroke:#000;stroke-width:25px;"/><path d="M2389.46,984.895l90.47,0" style="fill:none;stroke:#000;stroke-width:25px;"/><path d="M2543.93,984.895l27.981,0" style="fill:none;stroke:#000;stroke-width:25px;"/><path d="M317.498,1315.11l1804.17,0" style="fill:none;stroke:#000;stroke-width:25px;"/></g><path d="M2571.91,351.562c114.845,0 208.084,93.239 208.084,208.084c0,114.845 -208.084,395.584 -208.084,395.584c0,0 -208.084,-280.739 -208.084,-395.584c0,-114.845 93.24,-208.084 208.084,-208.084Zm0,137.002c39.232,0 71.083,31.851 71.083,71.082c0,39.232 -31.851,71.083 -71.083,71.083c-39.231,0 -71.082,-31.851 -71.082,-71.083c0,-39.231 31.851,-71.082 71.082,-71.082Z" style="fill:#fff;stroke:#000;stroke-width:25px;"/></g></g></g><defs><linearGradient id="_Linear3" x1="0" y1="0" x2="1" y2="0" gradientUnits="userSpaceOnUse" gradientTransform="matrix(555.535,0,0,555.535,1016.83,664.561)"><stop offset="0" style="stop-color:#f39eca;stop-opacity:0.5"/><stop offset="1" style="stop-color:#fad9eb;stop-opacity:0.5"/></linearGradient></defs></svg>