<?xml version="1.0" encoding="utf-8"?>
<!-- Generator: Adobe Illustrator 16.0.0, SVG Export Plug-In . SVG Version: 6.00 Build 0)  -->
<!DOCTYPE svg PUBLIC "-//W3C//DTD SVG 1.1//EN" "http://www.w3.org/Graphics/SVG/1.1/DTD/svg11.dtd">
<svg version="1.1" id="Ebene_1" xmlns:serif="http://www.serif.com/"
	 xmlns="http://www.w3.org/2000/svg" xmlns:xlink="http://www.w3.org/1999/xlink" x="0px" y="0px" width="1000px"
	 height="753.897px" viewBox="0 246.103 1000 753.897" enable-background="new 0 246.103 1000 753.897" xml:space="preserve">
<path fill-opacity="0.1" d="M1000,999.999H0V555.554h10.185V476.85h45.371V360.183h26.389v23.148h26.389v23.148h27.777v115.74h25
	v-60.186h61.111v118.52h17.593v-154.63h61.111v96.296h18.519v-63.889h62.036v33.333l14.815,18.851v33.001h21.296V522.22h12.963
	v-53.704h38.982l0.038-28.703l16.535-19.444v-54.63h20.37v-49.074h2.778v49.074h14.352V561.11h25.463v-60.186h12.963v-12.963
	l34.26,15.741v-40.297l31.338-43.036l34.402,43.036v126.358h15.278v20.42h21.064v-95.37h19.213v-37.963h21.528v-14.815h20.139
	v-65.74h2.777v65.74h7.64v14.815h5.323v86.111h4.63V536.11l43.519-29.63v56.482h46.297v-46.297h26.852v-28.704l51.852,42.593
	v-38.889L1000,534.259V999.999L1000,999.999z"/>
<path fill-opacity="0.1" d="M0,999.999h349.956V725.693h-5.093v-42.631h-22.685v-63.194h-13.194v12.538H295.79v12.539h-13.89v62.692
	h-12.5v-32.601h-30.555v64.198h-8.797v-83.758h-30.556v52.16h-9.259v-34.606h-31.019v18.056l-7.407,10.211v17.875H141.16v-11.535
	h-6.481v-29.09h-19.491L115.169,663l-8.269-10.532v-29.591H96.716v-26.582h-1.389v26.582h-7.176v105.825H75.419v-32.6h-6.481v-7.021
	l-17.129,8.525v-21.827L36.14,652.468l-17.202,23.312v68.444h-7.639v11.061H0V999.999L0,999.999z M349.956,999.999H1000V725.693
	h-6.621v-42.631h-29.493v-63.194h-17.153v12.538h-17.154v12.539h-18.057v62.692h-16.251v-32.601h-39.726v64.198H844.11v-83.758
	h-39.725v52.16h-12.038v-34.606H752.02v18.056l-9.63,10.211v17.875h-13.844v-11.535h-8.427v-29.09h-25.34L694.755,663
	l-10.749-10.532v-29.591h-13.241v-26.582h-1.806v26.582h-9.33v105.825h-16.552v-32.6h-8.427v-7.021l-22.27,8.525v-21.827
	l-20.371-23.312l-22.363,23.312v68.444h-9.932v11.061h-13.692v-51.659h-12.489v-20.563h-13.994v-8.025h-13.092v-35.609h-1.806
	v35.609h-4.965v8.025h-3.461v46.644h-3.01v-14.545l-28.289-16.05v30.595h-30.095v-25.077h-17.455v-15.548l-33.705,23.07v-21.064
	l-33.706,23.071V999.999L349.956,999.999z"/>
<g>
	<g>
		<path fill="#FFFFFF" d="M330.931,637.152c0-14.63-11.877-26.507-26.507-26.507H168.105c-14.63,0-26.507,11.877-26.507,26.507
			v321.987c0,14.629,11.877,26.507,26.507,26.507h136.319c14.63,0,26.507-11.878,26.507-26.507V637.152z"/>
		<g id="Product_Icon_Plate">
			<defs>
				<path id="SVGID_1_" d="M330.931,637.152c0-14.63-11.877-26.507-26.507-26.507H168.105c-14.63,0-26.507,11.877-26.507,26.507
					v321.987c0,14.629,11.877,26.507,26.507,26.507h136.319c14.63,0,26.507-11.878,26.507-26.507V637.152z"/>
			</defs>
			<clipPath id="SVGID_2_">
				<use xlink:href="#SVGID_1_"  overflow="visible"/>
			</clipPath>
		</g>
	</g>
</g>
<g>
	<path fill="none" stroke="#000000" stroke-width="25" stroke-linecap="round" stroke-miterlimit="3" d="M214.933,630.645h44"/>
	
		<circle fill="#FFFFFF" stroke="#000000" stroke-width="21.3" stroke-linecap="round" stroke-miterlimit="3" cx="236.933" cy="956.646" r="15.333"/>
	<circle fill="none" cx="236.933" cy="748.645" r="38"/>
	<g>
		<defs>
			<circle id="SVGID_3_" cx="236.933" cy="748.645" r="38"/>
		</defs>
		<clipPath id="SVGID_4_">
			<use xlink:href="#SVGID_3_"  overflow="visible"/>
		</clipPath>
		<g clip-path="url(#SVGID_4_)">
			
				<circle fill="none" stroke="#000000" stroke-width="25" stroke-linecap="round" stroke-miterlimit="3" cx="236.933" cy="697.978" r="54"/>
			
				<circle fill="none" stroke="#000000" stroke-width="25" stroke-linecap="round" stroke-miterlimit="3" cx="236.933" cy="776.646" r="24.667"/>
		</g>
		
			<circle clip-path="url(#SVGID_4_)" fill="none" stroke="#000000" stroke-width="27.94" stroke-linecap="round" stroke-miterlimit="3" cx="236.933" cy="748.645" r="38"/>
	</g>
	<path fill="none" stroke="#000000" stroke-width="25" stroke-miterlimit="3" d="M330.931,637.152
		c0-14.63-11.877-26.507-26.507-26.507H168.105c-14.63,0-26.507,11.877-26.507,26.507v321.987c0,14.629,11.877,26.507,26.507,26.507
		h136.319c14.63,0,26.507-11.878,26.507-26.507V637.152z"/>
	<g>
		<path fill="#FAD9EB" d="M639.826,820.842h-26.021c-2.602-6.939,0,0.867-22.552-53.779c-11.276-26.889-35.563-45.971-64.188-50.309
			c-8.674-0.867-1.734-0.867-133.578-0.867c-32.961,0-63.319,19.95-76.33,51.176c-22.553,54.646-24.287,46.84-26.89,53.779h-21.685
			c-6.071,0-10.408,5.204-9.541,10.408l1.734,10.409c0.867,5.204,6.072,8.674,11.276,8.674h17.348v74.596H619.01v-74.596h18.215
			c5.205,0,10.409-3.47,10.409-8.674l1.734-10.409C650.237,826.046,645.031,820.842,639.826,820.842L639.826,820.842z"/>
		<path fill="#F39ECA" d="M589.52,862.476c0,13.878-11.276,24.286-24.287,24.286c-13.878,0-24.287-11.275-24.287-24.286
			c0-13.012,11.276-24.287,24.287-24.287S589.52,849.465,589.52,862.476z"/>
		<path fill="#F39ECA" d="M368.336,862.476c0,13.878-11.276,24.286-24.287,24.286c-13.879,0-24.287-11.275-24.287-24.286
			c0-13.012,11.275-24.287,24.287-24.287C357.927,838.189,368.336,849.465,368.336,862.476z"/>
		<path fill="#EC57A2" d="M512.323,907.58h-116.23c-1.734,0-2.602-0.867-2.602-2.602v-25.155c0-1.734,0.867-2.602,2.602-2.602
			h116.23c1.735,0,2.603,0.867,2.603,2.602v25.155C514.925,906.713,514.058,907.58,512.323,907.58z"/>
		<g>
			<path fill="#EC57A2" d="M558.294,945.747v30.358c0,5.205,4.337,9.542,9.541,9.542h40.768c5.205,0,10.409-4.337,10.409-9.542
				v-30.358H558.294z"/>
			<path fill="#EC57A2" d="M289.402,945.747v30.358c0,5.205,4.337,9.542,9.542,9.542h40.767c5.205,0,9.542-4.337,10.409-9.542
				v-30.358H289.402L289.402,945.747z"/>
		</g>
		<rect x="289.402" y="924.927" fill="#F39ECA" width="329.609" height="26.021"/>
		<path fill="#F49AC7" d="M567.833,776.604c-8.674-21.685-30.358-38.165-53.778-38.165H395.223c-23.42,0-45.105,16.48-53.779,38.165
			l-15.612,39.9h257.615L567.833,776.604z"/>
		
			<linearGradient id="SVGID_5_" gradientUnits="userSpaceOnUse" x1="-0.6414" y1="999.2703" x2="0.3591" y2="999.2703" gradientTransform="matrix(177.7712 0 0 -177.7712 439.3213 178418.9063)">
			<stop  offset="0" style="stop-color:#F39ECA;stop-opacity:0.5"/>
			<stop  offset="1" style="stop-color:#FAD9EB;stop-opacity:0.5"/>
		</linearGradient>
		<path fill="url(#SVGID_5_)" d="M395.225,738.439c-23.419,0-45.104,16.48-53.778,38.165l-15.612,39.9h99.75l78.064-78.065H395.225z
			"/>
	</g>
	<g>
		<g>
			<path fill="none" stroke="#000000" stroke-width="25" stroke-linecap="round" stroke-miterlimit="3" d="M690.931,985.647h10.667"
				/>
			<path fill="none" stroke="#000000" stroke-width="25" stroke-linecap="round" stroke-miterlimit="3" d="M713.6,985.647h25.333"/>
			<path fill="none" stroke="#000000" stroke-width="25" stroke-linecap="round" stroke-miterlimit="3" d="M758.931,985.647h25.333"
				/>
			<path fill="none" stroke="#000000" stroke-width="25" stroke-linecap="round" stroke-miterlimit="3" d="M804.266,985.647h25.333"
				/>
			<path fill="none" stroke="#000000" stroke-width="25" stroke-linecap="round" stroke-miterlimit="3" d="M850.931,985.647
				c0,0,7.83,0,20.167,0c1.19,0,2.347-0.049,3.468-0.146"/>
			<path fill="none" stroke="#000000" stroke-width="25" stroke-linecap="round" stroke-miterlimit="3" d="M895.542,972.252
				c1.875-3.89,2.859-8.557,2.859-13.907c0-5.327-0.977-9.978-2.835-13.857"/>
			<path fill="none" stroke="#000000" stroke-width="25" stroke-linecap="round" stroke-miterlimit="3" d="M880.022,932.098
				c-2.711-0.696-5.691-1.055-8.922-1.055c-4.871,0-11.127,0-18.364,0"/>
			<path fill="none" stroke="#000000" stroke-width="25" stroke-linecap="round" stroke-miterlimit="3" d="M834.931,931.043
				c-8.121,0-16.296,0-25.333,0"/>
			<path fill="none" stroke="#000000" stroke-width="25" stroke-linecap="round" stroke-miterlimit="3" d="M788.861,931.043h-28.443
				"/>
			<path fill="none" stroke="#000000" stroke-width="25" stroke-linecap="round" stroke-miterlimit="3" d="M740.781,930.719
				c-10.109-1.372-16.838-7.04-19.38-16.201"/>
			<path fill="none" stroke="#000000" stroke-width="25" stroke-linecap="round" stroke-miterlimit="3" d="M721.027,898.022
				c2.528-11.552,11.263-18.043,24.772-18.043"/>
			<path fill="none" stroke="#000000" stroke-width="25" stroke-linecap="round" stroke-miterlimit="3" d="M764.627,879.978h28.95"
				/>
			<path fill="none" stroke="#000000" stroke-width="25" stroke-linecap="round" stroke-miterlimit="3" d="M814.057,879.978h8.954"
				/>
			<path fill="none" stroke="#000000" stroke-width="25" stroke-linecap="round" stroke-miterlimit="3" d="M101.599,985.647h577.335
				"/>
		</g>
		<path fill="#FFFFFF" stroke="#000000" stroke-width="25" stroke-linecap="round" stroke-miterlimit="3" d="M823.011,677.312
			c36.75,0,66.587,29.836,66.587,66.587c0,36.75-66.587,126.587-66.587,126.587s-66.587-89.837-66.587-126.587
			C756.424,707.148,786.261,677.312,823.011,677.312z M823.011,721.153c12.554,0,22.746,10.192,22.746,22.746
			s-10.192,22.746-22.746,22.746s-22.746-10.192-22.746-22.746S810.457,721.153,823.011,721.153L823.011,721.153z"/>
	</g>
</g>
</svg>
