<?xml version="1.0" encoding="UTF-8" standalone="no"?><!DOCTYPE svg PUBLIC "-//W3C//DTD SVG 1.1//EN" "http://www.w3.org/Graphics/SVG/1.1/DTD/svg11.dtd"><svg width="100%" height="100%" viewBox="0 0 26042 14584" version="1.1" xmlns="http://www.w3.org/2000/svg" xmlns:xlink="http://www.w3.org/1999/xlink" xml:space="preserve" xmlns:serif="http://www.serif.com/" style="fill-rule:evenodd;clip-rule:evenodd;stroke-linejoin:round;stroke-miterlimit:2;"><g id="Icons"><path d="M14507.1,8504.75c-308.9,-159.587 -615.112,-137.158 -909.35,-13.55c-620.546,260.646 -989.087,746.546 -1177.71,1379.42c-21.263,71.266 -23.717,150.3 -22.492,225.541c3.154,198.963 78.279,255.33 270.871,191.775c192.129,-63.437 350.55,-185.758 498.633,-321.691c358.963,-329.404 658.109,-709.688 938.325,-1105.51c104.038,-146.912 202.7,-294.937 401.721,-355.983Zm-1796.44,-4843.92c88.73,0 118.346,6.663 143.584,-0.991c619.958,-187.746 1216.03,-428.825 1758.82,-788.721c365.854,-242.542 706.883,-514.171 988.62,-853.563c103.1,-124.308 200.655,-254.458 237.046,-417.145c47.142,-210.409 -36.741,-310.534 -251.766,-294.413c-213.567,16.067 -403.005,107.604 -583.275,213.858c-907.305,535.317 -1590.76,1308.86 -2293.03,2140.97Zm4552.58,6180.79c-316.905,-15.712 -651.446,115.021 -1001.53,145.979c-161.458,14.254 -309.6,174.021 -464.754,266.375c-97.9,58.238 -193,124.542 -297.504,167.884c-167.654,69.516 -223.85,189.733 -203.521,360.304c13.492,112.916 15.48,226.416 51.055,337.175c138.795,432.154 408.612,613.883 862.325,561.075c634.683,-73.834 1176.72,-350.254 1647.89,-774.234c92.413,-83.183 170.746,-179.683 228.167,-290.15c133.654,-257.141 68.696,-486.77 -182.079,-631.816c-185.471,-107.192 -390.388,-142.65 -640.054,-142.592Zm-11123.4,1427.49c-897.492,-567.913 -2124.03,-517.209 -2947.45,0.058c-377.655,237.342 -688.892,539.933 -871.38,954.679c-124.483,283.196 -168.47,575.334 44.805,834.988c209.358,254.925 502.137,242.891 789.245,183.483c308.784,-63.967 593.792,-196.158 869.334,-347.979c560.787,-309.075 1067.25,-693.742 1547.89,-1113.98c184.242,-161.109 363.925,-327.534 567.563,-511.25Zm9458.17,-1422.93c388.342,-226.008 741.871,-464.987 1086,-717.283c1636.03,-1199.85 3063.53,-2619.16 4367.88,-4166.29c472.579,-560.492 914.488,-1144.88 1273.33,-1786.75c115.954,-207.429 222.97,-420.938 268.008,-657.696c37.504,-196.625 -16.883,-245.517 -210.588,-188.563c-239.558,70.388 -452.308,197.5 -661.083,329.813c-669.729,424.5 -1273.8,932.071 -1847.79,1476.09c-1698.36,1609.63 -3099.81,3448.48 -4231.67,5494.58c-30.613,55.375 -80.908,106.317 -44.104,216.079l0.016,0.008Zm-756.887,922.025c-843.692,181.496 -1067.13,61.1 -1148.91,-613.479c-95.45,-21.437 -130.209,63.088 -182.9,109.996c-243.476,216.896 -498.513,413.229 -825.58,486.6c-61.687,13.904 -106.9,31.425 -107.604,104.971c-2.041,185.996 -152.987,254.4 -279.341,331.275c-417.959,254.629 -880.725,400.842 -1349.33,525.971c-756.07,201.879 -1528.08,307.496 -2309.21,327.416c-648.233,16.588 -1260.66,-145.045 -1840.25,-434.67c-241.021,-120.45 -241.313,-116.305 -429.059,59.762c-625.745,587.129 -1279.35,1138.28 -2028.29,1565.99c-356.392,203.462 -725.575,375.083 -1130.39,459.087c-207.317,43.05 -416.912,52.571 -622.708,2.45c-614.409,-149.483 -944.279,-733.341 -778.5,-1372.64c103.162,-398.1 325.608,-726.159 613.246,-1012.69c934.408,-930.671 2442.45,-1166.96 3678.17,-582.283c126.7,59.937 247.213,193.471 382.617,160.35c131.963,-32.246 208.717,-185.758 305.513,-289.738c987.333,-1061.11 1845.69,-2225.33 2704.86,-3388.67c627.262,-849.413 1252.25,-1700.53 1876.53,-2552.04c48.775,-66.533 117.179,-123.783 133.771,-249.2c-183.717,11.508 -358.671,20.446 -533.158,33.708c-828.092,62.738 -1632.18,-27.983 -2395.55,-375.029c-278.409,-126.525 -537.13,-286.291 -766.35,-489.983c-106.959,-95.1 -208.017,-198.379 -253.813,-338.4c-27.983,-85.929 -21.029,-175.246 61.979,-230.45c89.259,-59.35 186.517,-54.383 259.363,26.404c833.525,924.246 1937.45,993.408 3067.15,958.771c253.875,-7.771 510.55,-44.396 765.183,-77.458c189.204,-24.596 311.175,-103.046 422.692,-246.338c503.421,-646.658 1045.05,-1259.55 1655.95,-1807.83c362.054,-324.967 747.187,-618.5 1187.87,-832.3c225.366,-109.296 458.091,-184.067 712.666,-170.221c406.454,22.021 661.084,321.867 616.979,727.442c-23.424,214.795 -120.274,398.741 -243.062,571.008c-262.929,368.717 -601.033,660.442 -962.8,925.942c-787.321,577.725 -1678.97,922.783 -2622.26,1137.05c-196.217,44.57 -319.534,135.233 -430.93,286.879c-850.175,1157.73 -1702.33,2314.06 -2557.47,3468.17c-804.258,1085.53 -1628.03,2155.64 -2554.14,3128.89c6.775,102.463 86.454,108.538 141.129,134.296c596.654,281.212 1217.61,394.829 1882.08,339.629c780.021,-64.9 1545.43,-185.354 2291.28,-422.929c335.421,-106.842 660.15,-238.508 971.329,-431.571c-330.75,-291.083 -337.35,-655.942 -217.541,-1026.65c285.533,-883.121 839.72,-1500.8 1777.75,-1709.58c285.358,-63.496 567.796,-37.854 838.55,75.879c408.15,171.45 465.337,559.154 111.108,816.938c-106.317,77.4 -177.875,166.716 -234.771,276.537c-158.071,305.104 -301.191,616.75 -329.346,964.788c-21.67,267.891 58.067,333.783 312.055,269.996c91.654,-23.075 179.274,-61.805 268.941,-92.709c97.904,-33.762 163.388,-74.946 119.813,-203.575c-35.925,-105.675 12.908,-210.821 87.154,-288.571c260.358,-272.683 418.312,-611.258 603.721,-931.02c1086,-1873.2 2420.14,-3549.89 3984.33,-5044.46c599.395,-572.7 1233.9,-1103.58 1936.35,-1547.94c265.205,-167.771 536.021,-326.075 845.738,-401.842c479.296,-117.296 794.154,160.879 728.083,646.25c-39.196,287.521 -159.704,546.183 -294.996,798.242c-316.258,589.179 -707.525,1128.06 -1128.81,1644.44c-1297.99,1590.65 -2736.75,3038.93 -4366.88,4292.17c-29.15,22.429 -55.496,48.425 -124.25,108.946c208.892,33.237 385.367,22.662 553.775,61.567c169.054,39.02 329.054,92.82 474.917,184.533c437.47,275.079 564.116,760.158 316.379,1216.03c-45.096,83.008 -96.446,166.367 -160.588,234.771c-567.266,605.125 -1259.49,980.442 -2087.7,1058.66c-736.15,69.575 -1193.6,-296.516 -1338.41,-1022.15c-22.138,-110.812 -36.217,-223.262 -54.092,-335.416l-0.012,0.02Z" style="fill:#e20074;fill-rule:nonzero;"/><g><path d="M308.025,8999.5c-76.642,-6.6 -146.45,-47.258 -209.479,-121.737c-63.088,-74.538 -95.917,-166.542 -98.546,-275.896l0,-3369.5c2.629,-109.355 35.458,-201.242 98.546,-275.838c63.029,-74.537 134.062,-115.021 213.625,-121.796l188.917,0c79.441,6.775 150.474,47.259 213.562,121.796c63.033,74.596 95.863,166.483 98.604,275.838l0,3369.5c-2.741,109.354 -35.571,201.358 -98.604,275.896c-63.087,74.479 -134.121,115.137 -213.562,121.737l-193.063,0Z" style="fill:#231f20;fill-rule:nonzero;stroke:#fff;stroke-width:89.67px;"/><path d="M2021.69,8999.5c-79.388,-6.6 -150.596,-47.258 -213.567,-121.737c-62.971,-74.538 -95.8,-166.542 -98.546,-275.896l0,-3369.5c2.746,-109.355 35.575,-201.242 98.546,-275.838c62.971,-74.537 134.179,-115.021 213.567,-121.796l188.97,0c164.267,16.709 290.267,132.604 377.892,347.979l657.171,1649.94l0,-1600.28c2.683,-109.355 35.575,-201.242 98.546,-275.838c62.971,-74.537 134.179,-115.021 213.562,-121.796l188.975,0c79.388,6.775 150.596,47.259 213.567,121.796c62.971,74.596 95.858,166.483 98.546,275.838l-0,3369.5c-2.688,109.354 -35.575,201.358 -98.546,275.896c-62.971,74.479 -134.179,115.137 -213.567,121.737l-188.975,0c-164.262,-16.533 -290.204,-132.487 -377.829,-347.862l-657.171,-1650l0,1600.23c-2.745,109.354 -35.633,201.358 -98.604,275.896c-62.971,74.479 -134.179,115.137 -213.566,121.737l-188.971,0Z" style="fill:#231f20;fill-rule:nonzero;stroke:#fff;stroke-width:89.67px;stroke-linejoin:miter;"/><path d="M5259.04,8999.5c-79.388,-6.6 -150.596,-47.258 -213.567,-121.737c-62.971,-74.538 -95.858,-166.542 -98.546,-275.896l0,-3369.5c2.688,-109.355 35.575,-201.242 98.546,-275.838c62.971,-74.537 134.179,-115.021 213.567,-121.796l188.971,0c164.262,16.709 290.208,132.604 377.887,347.979l657.171,1649.94l-0,-1600.28c2.746,-109.355 35.575,-201.242 98.546,-275.838c63.033,-74.537 134.183,-115.021 213.625,-121.796l188.916,0c79.384,6.775 150.592,47.259 213.567,121.796c62.971,74.596 95.858,166.483 98.604,275.838l0,3369.5c-2.746,109.354 -35.633,201.358 -98.604,275.896c-62.975,74.479 -134.183,115.137 -213.567,121.737l-188.916,0c-164.321,-16.533 -290.263,-132.487 -377.888,-347.862l-657.229,-1650l0,1600.23c-2.687,109.354 -35.575,201.358 -98.546,275.896c-62.971,74.479 -134.179,115.137 -213.566,121.737l-188.971,0Z" style="fill:#231f20;fill-rule:nonzero;stroke:#fff;stroke-width:89.67px;stroke-linejoin:miter;"/><path d="M9481.08,6007.71c-2.741,-109.354 -35.57,-201.358 -98.545,-275.837c-62.971,-74.538 -134.18,-115.138 -213.621,-121.796l-65.721,0c-79.383,6.658 -150.592,47.258 -213.567,121.796c-62.971,74.479 -95.8,166.483 -98.546,275.837l0,1818.93c2.746,109.295 35.575,201.241 98.546,275.779c62.975,74.596 134.184,115.196 213.567,121.737l65.721,0c79.441,-6.541 150.65,-47.141 213.621,-121.737c62.975,-74.538 95.804,-166.484 98.545,-275.779l0,-1818.93Zm-1519.67,-89.495c8.179,-159.005 60.929,-328.817 158.133,-509.38c97.2,-180.558 222.442,-320.583 375.783,-420.004c153.338,-99.362 301.188,-150.712 443.604,-154.1l349.092,0c172.558,3.388 335.475,54.738 488.817,154.1c153.337,99.421 278.583,239.446 375.783,420.004c97.204,180.563 149.954,350.375 158.129,509.38l0,1997.86c-8.175,159.067 -60.925,328.879 -158.129,509.442c-97.2,180.62 -222.446,320.525 -375.783,419.887c-153.342,99.421 -316.259,150.829 -488.817,154.1l-349.092,0c-142.416,-3.271 -290.266,-54.679 -443.604,-154.1c-153.341,-99.362 -278.583,-239.267 -375.783,-419.887c-97.204,-180.563 -149.954,-350.375 -158.133,-509.442l-0,-1997.86Z" style="fill:#231f20;fill-rule:nonzero;stroke:#fff;stroke-width:89.67px;stroke-linejoin:miter;"/><path d="M11819.6,8999.5c-156.025,3.271 -308.725,-42.292 -457.917,-136.692c-149.366,-94.4 -234.829,-204.512 -256.733,-330.454l-271.108,-3299.99c2.629,-109.355 35.516,-201.242 98.608,-275.838c62.971,-74.537 134.063,-115.021 213.567,-121.796l188.971,0c136.866,13.321 232.608,96.209 287.462,248.5l246.454,3091.27c19.042,29.85 46.554,46.442 82.129,49.654l115.021,0c35.517,-3.212 62.971,-19.804 82.129,-49.654l246.454,-3091.27c54.796,-152.291 150.48,-235.179 287.521,-248.5l188.917,0c79.442,6.775 150.533,47.259 213.621,121.796c62.975,74.596 95.804,166.483 98.55,275.838l-271.046,3299.99c-22.025,125.942 -107.488,236.054 -256.738,330.454c-149.366,94.4 -301.887,139.963 -457.975,136.692l-377.887,0Z" style="fill:#231f20;fill-rule:nonzero;stroke:#fff;stroke-width:89.67px;stroke-linejoin:miter;"/><path d="M14979.5,5659.79c-19.163,-29.792 -46.559,-46.325 -82.134,-49.713l-115.02,0c-35.575,3.388 -62.971,19.921 -82.13,49.713l-69.808,864.716l418.896,0l-69.804,-864.716Zm-328.588,-825.059l377.888,0c156.087,-3.212 308.725,42.292 457.975,136.692c149.196,94.517 234.771,204.629 256.679,330.571l271.104,3299.88c-2.746,109.354 -35.575,201.358 -98.604,275.896c-62.971,74.479 -134.125,115.137 -213.567,121.737l-188.916,0c-136.925,-13.204 -232.784,-96.096 -287.517,-248.5l-115.021,-1441.28l-542.15,0l-115.021,1441.28c-54.737,152.404 -150.596,235.296 -287.521,248.5l-188.912,0c-79.388,-6.6 -150.596,-47.258 -213.567,-121.737c-62.971,-74.538 -95.858,-166.542 -98.604,-275.896l271.104,-3299.88c21.904,-125.942 107.484,-236.054 256.675,-330.571c149.25,-94.4 301.892,-139.904 457.975,-136.692Z" style="fill:#231f20;fill-rule:nonzero;stroke:#fff;stroke-width:89.67px;stroke-linejoin:miter;"/><path d="M18340.9,4834.75c197.15,-3.212 317.662,102.754 361.475,318.129l-0,139.146c-43.813,215.433 -164.325,321.458 -361.475,318.071l-410.717,-0l0,2991.79c-2.746,109.354 -35.633,201.358 -98.604,275.895c-62.971,74.48 -134.179,115.138 -213.567,121.738l-193.062,-0c-76.642,-6.6 -146.446,-47.258 -209.475,-121.738c-62.971,-74.537 -95.805,-166.541 -98.546,-275.895l-0,-2991.79l-402.542,-0c-197.15,3.387 -317.604,-102.638 -361.412,-318.071l-0,-139.146c43.808,-215.375 164.262,-321.341 361.412,-318.129l1626.51,0Z" style="fill:#231f20;fill-rule:nonzero;stroke:#fff;stroke-width:89.67px;stroke-linejoin:miter;"/><path d="M19490.9,8999.5c-76.7,-6.6 -146.504,-47.258 -209.475,-121.737c-63.092,-74.538 -95.979,-166.542 -98.608,-275.896l-0,-3369.5c2.629,-109.355 35.516,-201.242 98.608,-275.838c62.971,-74.537 134.058,-115.021 213.563,-121.796l188.916,0c79.446,6.775 150.534,47.259 213.625,121.796c62.971,74.596 95.8,166.483 98.546,275.838l0,3369.5c-2.746,109.354 -35.575,201.358 -98.546,275.896c-63.091,74.479 -134.179,115.137 -213.625,121.737l-193.004,0Z" style="fill:#231f20;fill-rule:nonzero;stroke:#fff;stroke-width:89.67px;stroke-linejoin:miter;"/><path d="M22180.8,6007.71c-2.692,-109.354 -35.575,-201.358 -98.55,-275.837c-63.088,-74.538 -134.18,-115.138 -213.567,-121.796l-65.717,0c-79.558,6.658 -150.591,47.258 -213.621,121.796c-63.091,74.479 -95.92,166.483 -98.55,275.837l0,1818.93c2.63,109.295 35.459,201.241 98.55,275.779c63.03,74.596 134.063,115.196 213.621,121.737l65.717,0c79.387,-6.541 150.479,-47.141 213.567,-121.737c62.975,-74.538 95.858,-166.484 98.55,-275.779l-0,-1818.93Zm-1519.67,-89.495c8.179,-159.005 60.929,-328.817 158.133,-509.38c97.083,-180.558 222.383,-320.583 375.783,-420.004c153.342,-99.362 301.246,-150.712 443.605,-154.1l349.15,0c172.5,3.388 335.3,54.738 488.758,154.1c153.341,99.421 278.641,239.446 375.842,420.004c97.087,180.563 149.895,350.375 158.129,509.38l-0,1997.86c-8.234,159.067 -61.042,328.879 -158.129,509.442c-97.201,180.62 -222.5,320.525 -375.842,419.887c-153.459,99.421 -316.258,150.829 -488.758,154.1l-349.15,0c-142.359,-3.271 -290.263,-54.679 -443.605,-154.1c-153.4,-99.362 -278.7,-239.267 -375.783,-419.887c-97.204,-180.563 -149.954,-350.375 -158.133,-509.442l-0,-1997.86Z" style="fill:#231f20;fill-rule:nonzero;stroke:#fff;stroke-width:89.67px;stroke-linejoin:miter;"/><path d="M24004.5,8999.5c-79.387,-6.6 -150.595,-47.258 -213.566,-121.737c-62.971,-74.538 -95.859,-166.542 -98.605,-275.896l0,-3369.5c2.746,-109.355 35.634,-201.242 98.605,-275.838c62.97,-74.537 134.179,-115.021 213.566,-121.796l188.971,0c164.267,16.709 290.209,132.604 377.834,347.979l657.17,1649.94l0,-1600.28c2.742,-109.355 35.63,-201.242 98.605,-275.838c62.97,-74.537 134.179,-115.021 213.562,-121.796l188.917,0c79.446,6.775 150.65,47.259 213.625,121.796c62.971,74.596 95.8,166.483 98.546,275.838l-0,3369.5c-2.746,109.354 -35.575,201.358 -98.546,275.896c-62.975,74.479 -134.179,115.137 -213.625,121.737l-188.917,0c-164.262,-16.533 -290.262,-132.487 -377.887,-347.862l-657.171,-1650l-0,1600.23c-2.742,109.354 -35.575,201.358 -98.546,275.896c-62.971,74.479 -134.179,115.137 -213.567,121.737l-188.971,0Z" style="fill:#231f20;fill-rule:nonzero;stroke:#fff;stroke-width:89.67px;stroke-linejoin:miter;"/></g></g></svg>