<?xml version="1.0" encoding="UTF-8" standalone="no"?><!DOCTYPE svg PUBLIC "-//W3C//DTD SVG 1.1//EN" "http://www.w3.org/Graphics/SVG/1.1/DTD/svg11.dtd"><svg width="100%" height="100%" viewBox="0 0 1417 1250" version="1.1" xmlns="http://www.w3.org/2000/svg" xmlns:xlink="http://www.w3.org/1999/xlink" xml:space="preserve" xmlns:serif="http://www.serif.com/" style="fill-rule:evenodd;clip-rule:evenodd;stroke-linejoin:round;stroke-miterlimit:2;"><g><g><path d="M-0,718.083c-0,-59.423 48.244,-107.666 107.667,-107.666l1022.17,-0c59.423,-0 107.667,48.243 107.667,107.666l-0,418c-0,59.423 -48.244,107.667 -107.667,107.667l-1022.17,-0c-59.423,-0 -107.667,-48.244 -107.667,-107.667l-0,-418Zm75,0c-0,-18.029 14.637,-32.666 32.667,-32.666c-0,-0 1022.17,-0 1022.17,-0c18.03,-0 32.667,14.637 32.667,32.666l0,418c0,18.03 -14.637,32.667 -32.667,32.667c0,-0 -1022.17,-0 -1022.17,-0c-18.03,-0 -32.667,-14.637 -32.667,-32.667l-0,-418Z" style="fill:#e20074;"/><path d="M125,610.417l912.5,-0l0,633.333l-912.5,0l0,-633.333Zm75.172,75.172l0,482.989l762.156,-0l-0,-482.989l-762.156,-0Z" style="fill:#e20074;"/><ellipse cx="1100" cy="927.083" rx="37.5" ry="50" style="fill:#e20074;"/></g><path d="M858.333,564.583l0,-358.333l483.334,0l-0,762.5l-58.334,0l0,75l58.334,0l-0,95.833c-0,16.667 -12.5,29.167 -29.167,29.167l-33.333,0c-0,33.333 -37.5,75 -50,75l87.5,0c56.713,0 100,-55.787 100,-112.5l-0,-1025c-0,-58.333 -45.834,-100 -104.167,-100l-429.167,0c-54.365,0 -100,45.635 -100,100l0,458.333l75,0Zm483.334,-437.5l-0,-25c-0,-12.5 -12.5,-25 -25,-25l-433.334,0c-12.5,0 -25,12.5 -25,25l0,25l483.334,0Z" style="fill:#fff;"/><path d="M606.25,227.083c-130.017,0 -235.417,105.4 -235.417,235.417c0,-0 0,-0 0,-0c0,20.789 16.878,37.667 37.667,37.667c20.789,-0 37.667,-16.878 37.667,-37.667c-0,-88.412 71.671,-160.083 160.083,-160.083c0,-0 0,-0 0,-0c20.789,-0 37.667,-16.878 37.667,-37.667c-0,-20.789 -16.878,-37.667 -37.667,-37.667l0,0Z" style="fill:#f8f8f8;"/></g></svg>