<?xml version="1.0" encoding="UTF-8" standalone="no"?><!DOCTYPE svg PUBLIC "-//W3C//DTD SVG 1.1//EN" "http://www.w3.org/Graphics/SVG/1.1/DTD/svg11.dtd"><svg width="100%" height="100%" viewBox="0 0 6250 4584" version="1.1" xmlns="http://www.w3.org/2000/svg" xmlns:xlink="http://www.w3.org/1999/xlink" xml:space="preserve" xmlns:serif="http://www.serif.com/" style="fill-rule:evenodd;clip-rule:evenodd;stroke-linejoin:round;stroke-miterlimit:2;"><g id="Icons"><path d="M3481.71,3078.69c-74.136,-38.301 -147.627,-32.918 -218.244,-3.252c-148.931,62.555 -237.381,179.171 -282.65,331.06c-5.103,17.104 -5.692,36.072 -5.398,54.13c0.757,47.751 18.787,61.279 65.009,46.026c46.111,-15.225 84.132,-44.582 119.672,-77.206c86.151,-79.057 157.946,-170.325 225.198,-265.322c24.969,-35.259 48.648,-70.785 96.413,-85.436Zm-431.146,-1162.54c21.295,0 28.403,1.599 34.46,-0.238c148.79,-45.059 291.847,-102.918 422.117,-189.293c87.805,-58.21 169.652,-123.401 237.269,-204.855c24.744,-29.834 48.157,-61.07 56.891,-100.115c11.314,-50.498 -8.818,-74.528 -60.424,-70.659c-51.256,3.856 -96.721,25.825 -139.986,51.326c-217.753,128.476 -381.783,314.125 -550.327,513.834Zm1092.62,1483.39c-76.057,-3.771 -156.347,27.605 -240.367,35.035c-38.75,3.421 -74.304,41.765 -111.541,63.93c-23.496,13.977 -46.32,29.89 -71.401,40.292c-40.237,16.684 -53.724,45.536 -48.845,86.473c3.238,27.1 3.715,54.34 12.253,80.922c33.311,103.717 98.067,147.332 206.958,134.658c152.324,-17.72 282.412,-84.061 395.495,-185.816c22.179,-19.964 40.979,-43.124 54.76,-69.636c32.077,-61.714 16.487,-116.825 -43.699,-151.636c-44.513,-25.726 -93.693,-34.236 -153.613,-34.222Zm-2669.61,342.598c-215.398,-136.299 -509.768,-124.13 -707.389,0.014c-90.637,56.962 -165.334,129.584 -209.131,229.123c-29.876,67.967 -40.433,138.08 10.753,200.397c50.246,61.182 120.513,58.294 189.419,44.036c74.108,-15.352 142.51,-47.078 208.64,-83.515c134.589,-74.178 256.139,-166.498 371.493,-267.355c44.218,-38.666 87.342,-78.608 136.215,-122.7Zm2269.96,-341.504c93.202,-54.242 178.049,-111.597 260.639,-172.148c392.648,-287.963 735.246,-628.599 1048.29,-999.909c113.419,-134.518 219.477,-274.771 305.6,-428.819c27.829,-49.783 53.513,-101.025 64.322,-157.847c9.001,-47.19 -4.052,-58.924 -50.541,-45.255c-57.494,16.893 -108.554,47.4 -158.66,79.155c-160.735,101.88 -305.712,223.697 -443.469,354.262c-407.607,386.311 -743.953,827.636 -1015.6,1318.7c-7.347,13.29 -19.418,25.516 -10.585,51.859Zm-181.653,221.286c-202.486,43.559 -256.111,14.664 -275.738,-147.235c-22.908,-5.145 -31.25,15.141 -43.896,26.399c-58.434,52.055 -119.643,99.175 -198.139,116.784c-14.805,3.337 -25.656,7.542 -25.825,25.193c-0.49,44.639 -36.717,61.056 -67.042,79.506c-100.31,61.111 -211.374,96.202 -323.839,126.233c-181.457,48.451 -366.74,73.799 -554.211,78.58c-155.576,3.981 -302.558,-34.811 -441.661,-104.321c-57.845,-28.908 -57.915,-27.913 -102.974,14.343c-150.179,140.911 -307.044,273.186 -486.79,375.838c-85.534,48.831 -174.138,90.02 -271.294,110.181c-49.756,10.332 -100.059,12.617 -149.45,0.588c-147.458,-35.876 -226.627,-176.002 -186.84,-329.433c24.759,-95.544 78.146,-174.278 147.179,-243.045c224.258,-223.361 586.189,-280.07 882.761,-139.748c30.408,14.385 59.331,46.433 91.828,38.484c31.671,-7.739 50.092,-44.582 73.323,-69.537c236.96,-254.667 442.965,-534.079 649.166,-813.28c150.543,-203.859 300.539,-408.126 450.367,-612.49c11.706,-15.968 28.123,-29.708 32.105,-59.808c-44.092,2.762 -86.081,4.907 -127.958,8.09c-198.742,15.057 -391.722,-6.716 -574.931,-90.007c-66.818,-30.366 -128.911,-68.71 -183.924,-117.596c-25.67,-22.824 -49.924,-47.611 -60.915,-81.216c-6.716,-20.623 -5.047,-42.059 14.875,-55.308c21.422,-14.244 44.764,-13.052 62.247,6.337c200.046,221.819 464.989,238.418 736.115,230.105c60.93,-1.865 122.532,-10.655 183.644,-18.59c45.409,-5.903 74.682,-24.731 101.446,-59.121c120.821,-155.198 250.811,-302.292 397.429,-433.88c86.893,-77.992 179.325,-148.44 285.089,-199.752c54.088,-26.231 109.942,-44.176 171.04,-40.853c97.549,5.285 158.66,77.248 148.075,174.586c-5.622,51.551 -28.866,95.698 -58.335,137.042c-63.103,88.492 -144.248,158.506 -231.072,222.226c-188.957,138.654 -402.953,221.468 -629.342,272.892c-47.092,10.697 -76.688,32.456 -103.423,68.851c-204.042,277.855 -408.56,555.374 -613.794,832.36c-193.022,260.527 -390.728,517.353 -612.995,750.934c1.626,24.591 20.749,26.049 33.871,32.231c143.197,67.491 292.226,94.759 451.699,81.511c187.205,-15.576 370.904,-44.485 549.907,-101.503c80.501,-25.642 158.436,-57.242 233.119,-103.577c-79.38,-69.86 -80.964,-157.426 -52.21,-246.395c68.528,-211.949 201.533,-360.193 426.66,-410.299c68.486,-15.239 136.271,-9.085 201.252,18.211c97.956,41.148 111.681,134.197 26.666,196.065c-25.516,18.576 -42.69,40.012 -56.345,66.369c-37.937,73.225 -72.286,148.02 -79.043,231.549c-5.201,64.294 13.936,80.108 74.893,64.799c21.997,-5.538 43.026,-14.833 64.546,-22.25c23.497,-8.103 39.213,-17.987 28.755,-48.858c-8.622,-25.362 3.098,-50.597 20.917,-69.257c62.486,-65.444 100.395,-146.702 144.893,-223.445c260.639,-449.568 580.834,-851.974 956.238,-1210.67c143.855,-137.448 296.137,-264.859 464.723,-371.506c63.649,-40.265 128.645,-78.258 202.977,-96.442c115.031,-28.151 190.597,38.611 174.74,155.1c-9.407,69.005 -38.329,131.084 -70.799,191.578c-75.902,141.403 -169.806,270.734 -270.915,394.667c-311.517,381.755 -656.821,729.344 -1048.05,1030.12c-6.996,5.383 -13.319,11.622 -29.82,26.147c50.134,7.977 92.488,5.439 132.906,14.776c40.573,9.365 78.973,22.277 113.98,44.288c104.993,66.019 135.388,182.438 75.931,291.847c-10.823,19.922 -23.147,39.928 -38.541,56.345c-136.144,145.23 -302.277,235.306 -501.047,254.078c-176.676,16.698 -286.464,-71.164 -321.219,-245.316c-5.313,-26.595 -8.692,-53.583 -12.982,-80.5Z" style="fill:#e20074;fill-rule:nonzero;"/><g><path d="M73.926,3197.43c-18.394,-1.584 -35.148,-11.342 -50.275,-29.217c-15.141,-17.889 -23.02,-39.97 -23.651,-66.215l0,-808.681c0.631,-26.245 8.51,-48.298 23.651,-66.201c15.127,-17.889 32.175,-27.605 51.27,-29.231l45.34,0c19.066,1.626 36.114,11.342 51.255,29.231c15.128,17.903 23.007,39.956 23.665,66.201l0,808.681c-0.658,26.245 -8.537,48.326 -23.665,66.215c-15.141,17.875 -32.189,27.633 -51.255,29.217l-46.335,0Z" style="fill:#231f20;fill-rule:nonzero;stroke:#fff;stroke-width:21.52px;"/><path d="M485.206,3197.43c-19.053,-1.584 -36.143,-11.342 -51.256,-29.217c-15.113,-17.889 -22.992,-39.97 -23.651,-66.215l0,-808.681c0.659,-26.245 8.538,-48.298 23.651,-66.201c15.113,-17.889 32.203,-27.605 51.256,-29.231l45.353,0c39.424,4.01 69.664,31.825 90.694,83.515l157.721,395.985l0,-384.068c0.644,-26.245 8.538,-48.298 23.651,-66.201c15.113,-17.889 32.203,-27.605 51.255,-29.231l45.354,0c19.053,1.626 36.143,11.342 51.256,29.231c15.113,17.903 23.006,39.956 23.651,66.201l0,808.681c-0.645,26.245 -8.538,48.326 -23.651,66.215c-15.113,17.875 -32.203,27.633 -51.256,29.217l-45.354,0c-39.423,-3.968 -69.649,-31.797 -90.679,-83.487l-157.721,-395.999l0,384.054c-0.659,26.245 -8.552,48.326 -23.665,66.215c-15.113,17.875 -32.203,27.633 -51.256,29.217l-45.353,0Z" style="fill:#231f20;fill-rule:nonzero;stroke:#fff;stroke-width:21.52px;stroke-linejoin:miter;"/><path d="M1262.17,3197.43c-19.053,-1.584 -36.143,-11.342 -51.256,-29.217c-15.113,-17.889 -23.006,-39.97 -23.651,-66.215l0,-808.681c0.645,-26.245 8.538,-48.298 23.651,-66.201c15.113,-17.889 32.203,-27.605 51.256,-29.231l45.353,0c39.423,4.01 69.65,31.825 90.693,83.515l157.721,395.985l0,-384.068c0.659,-26.245 8.538,-48.298 23.651,-66.201c15.128,-17.889 32.204,-27.605 51.27,-29.231l45.34,0c19.052,1.626 36.142,11.342 51.256,29.231c15.113,17.903 23.006,39.956 23.665,66.201l0,808.681c-0.659,26.245 -8.552,48.326 -23.665,66.215c-15.114,17.875 -32.204,27.633 -51.256,29.217l-45.34,0c-39.437,-3.968 -69.663,-31.797 -90.693,-83.487l-157.735,-395.999l0,384.054c-0.645,26.245 -8.538,48.326 -23.651,66.215c-15.113,17.875 -32.203,27.633 -51.256,29.217l-45.353,0Z" style="fill:#231f20;fill-rule:nonzero;stroke:#fff;stroke-width:21.52px;stroke-linejoin:miter;"/><path d="M2275.46,2479.4c-0.658,-26.245 -8.537,-48.326 -23.651,-66.201c-15.113,-17.889 -32.203,-27.633 -51.269,-29.231l-15.773,0c-19.052,1.598 -36.142,11.342 -51.256,29.231c-15.113,17.875 -22.992,39.956 -23.651,66.201l0,436.543c0.659,26.231 8.538,48.298 23.651,66.187c15.114,17.903 32.204,27.647 51.256,29.217l15.773,0c19.066,-1.57 36.156,-11.314 51.269,-29.217c15.114,-17.889 22.993,-39.956 23.651,-66.187l0,-436.543Zm-364.721,-21.479c1.963,-38.161 14.623,-78.916 37.952,-122.251c23.328,-43.334 53.386,-76.94 90.188,-100.801c36.801,-23.847 72.285,-36.171 106.465,-36.984l83.782,0c41.414,0.813 80.514,13.137 117.316,36.984c36.801,23.861 66.86,57.467 90.188,100.801c23.329,43.335 35.989,84.09 37.951,122.251l0,479.486c-1.962,38.176 -14.622,78.931 -37.951,122.266c-23.328,43.349 -53.387,76.926 -90.188,100.773c-36.802,23.861 -75.902,36.199 -117.316,36.984l-83.782,0c-34.18,-0.785 -69.664,-13.123 -106.465,-36.984c-36.802,-23.847 -66.86,-57.424 -90.188,-100.773c-23.329,-43.335 -35.989,-84.09 -37.952,-122.266l0,-479.486Z" style="fill:#231f20;fill-rule:nonzero;stroke:#fff;stroke-width:21.52px;stroke-linejoin:miter;"/><path d="M2836.71,3197.43c-37.446,0.785 -74.094,-10.15 -109.9,-32.806c-35.848,-22.656 -56.359,-49.083 -61.616,-79.309l-65.066,-791.998c0.631,-26.245 8.524,-48.298 23.666,-66.201c15.113,-17.889 32.175,-27.605 51.256,-29.231l45.353,0c32.848,3.197 55.826,23.09 68.991,59.64l59.149,741.905c4.57,7.164 11.173,11.146 19.711,11.917l27.605,0c8.524,-0.771 15.113,-4.753 19.711,-11.917l59.149,-741.905c13.151,-36.55 36.115,-56.443 69.005,-59.64l45.34,0c19.066,1.626 36.128,11.342 51.269,29.231c15.114,17.903 22.993,39.956 23.652,66.201l-65.051,791.998c-5.286,30.226 -25.797,56.653 -61.617,79.309c-35.848,22.656 -72.453,33.591 -109.914,32.806l-90.693,0Z" style="fill:#231f20;fill-rule:nonzero;stroke:#fff;stroke-width:21.52px;stroke-linejoin:miter;"/><path d="M3595.09,2395.9c-4.599,-7.15 -11.174,-11.118 -19.712,-11.931l-27.605,0c-8.538,0.813 -15.113,4.781 -19.711,11.931l-16.754,207.532l100.535,0l-16.753,-207.532Zm-78.861,-198.014l90.693,0c37.461,-0.771 74.094,10.15 109.914,32.806c35.807,22.684 56.345,49.111 61.603,79.337l65.065,791.97c-0.659,26.245 -8.538,48.326 -23.665,66.215c-15.113,17.875 -32.19,27.633 -51.256,29.217l-45.34,0c-32.862,-3.169 -55.868,-23.063 -69.004,-59.64l-27.605,-345.906l-130.116,0l-27.605,345.906c-13.137,36.577 -36.143,56.471 -69.005,59.64l-45.339,0c-19.053,-1.584 -36.143,-11.342 -51.256,-29.217c-15.113,-17.889 -23.006,-39.97 -23.665,-66.215l65.065,-791.97c5.257,-30.226 25.796,-56.653 61.602,-79.337c35.82,-22.656 72.454,-33.577 109.914,-32.806Z" style="fill:#231f20;fill-rule:nonzero;stroke:#fff;stroke-width:21.52px;stroke-linejoin:miter;"/><path d="M4401.82,2197.89c47.316,-0.771 76.239,24.661 86.754,76.351l0,33.395c-10.515,51.704 -39.438,77.15 -86.754,76.337l-98.572,0l0,718.03c-0.659,26.245 -8.552,48.326 -23.665,66.215c-15.113,17.875 -32.203,27.633 -51.256,29.217l-46.335,0c-18.394,-1.584 -35.147,-11.342 -50.274,-29.217c-15.113,-17.889 -22.993,-39.97 -23.651,-66.215l0,-718.03l-96.61,0c-47.316,0.813 -76.225,-24.633 -86.739,-76.337l0,-33.395c10.514,-51.69 39.423,-77.122 86.739,-76.351l390.363,0Z" style="fill:#231f20;fill-rule:nonzero;stroke:#fff;stroke-width:21.52px;stroke-linejoin:miter;"/><path d="M4677.81,3197.43c-18.408,-1.584 -35.161,-11.342 -50.274,-29.217c-15.142,-17.889 -23.035,-39.97 -23.666,-66.215l0,-808.681c0.631,-26.245 8.524,-48.298 23.666,-66.201c15.113,-17.889 32.174,-27.605 51.255,-29.231l45.34,0c19.067,1.626 36.128,11.342 51.27,29.231c15.113,17.903 22.992,39.956 23.651,66.201l0,808.681c-0.659,26.245 -8.538,48.326 -23.651,66.215c-15.142,17.875 -32.203,27.633 -51.27,29.217l-46.321,0Z" style="fill:#231f20;fill-rule:nonzero;stroke:#fff;stroke-width:21.52px;stroke-linejoin:miter;"/><path d="M5323.39,2479.4c-0.646,-26.245 -8.538,-48.326 -23.652,-66.201c-15.141,-17.889 -32.203,-27.633 -51.256,-29.231l-15.772,0c-19.094,1.598 -36.142,11.342 -51.269,29.231c-15.142,17.875 -23.021,39.956 -23.652,66.201l0,436.543c0.631,26.231 8.51,48.298 23.652,66.187c15.127,17.903 32.175,27.647 51.269,29.217l15.772,0c19.053,-1.57 36.115,-11.314 51.256,-29.217c15.114,-17.889 23.006,-39.956 23.652,-66.187l0,-436.543Zm-364.722,-21.479c1.963,-38.161 14.623,-78.916 37.952,-122.251c23.3,-43.334 53.372,-76.94 90.188,-100.801c36.802,-23.847 72.299,-36.171 106.465,-36.984l83.796,0c41.4,0.813 80.472,13.137 117.302,36.984c36.802,23.861 66.874,57.467 90.202,100.801c23.301,43.335 35.975,84.09 37.951,122.251l0,479.486c-1.976,38.176 -14.65,78.931 -37.951,122.266c-23.328,43.349 -53.4,76.926 -90.202,100.773c-36.83,23.861 -75.902,36.199 -117.302,36.984l-83.796,0c-34.166,-0.785 -69.663,-13.123 -106.465,-36.984c-36.816,-23.847 -66.888,-57.424 -90.188,-100.773c-23.329,-43.335 -35.989,-84.09 -37.952,-122.266l0,-479.486Z" style="fill:#231f20;fill-rule:nonzero;stroke:#fff;stroke-width:21.52px;stroke-linejoin:miter;"/><path d="M5761.07,3197.43c-19.053,-1.584 -36.143,-11.342 -51.256,-29.217c-15.113,-17.889 -23.006,-39.97 -23.665,-66.215l0,-808.681c0.659,-26.245 8.552,-48.298 23.665,-66.201c15.113,-17.889 32.203,-27.605 51.256,-29.231l45.353,0c39.424,4.01 69.65,31.825 90.68,83.515l157.721,395.985l0,-384.068c0.658,-26.245 8.551,-48.298 23.665,-66.201c15.113,-17.889 32.203,-27.605 51.255,-29.231l45.34,0c19.067,1.626 36.156,11.342 51.27,29.231c15.113,17.903 22.992,39.956 23.651,66.201l0,808.681c-0.659,26.245 -8.538,48.326 -23.651,66.215c-15.114,17.875 -32.203,27.633 -51.27,29.217l-45.34,0c-39.423,-3.968 -69.663,-31.797 -90.693,-83.487l-157.721,-395.999l0,384.054c-0.658,26.245 -8.538,48.326 -23.651,66.215c-15.113,17.875 -32.203,27.633 -51.256,29.217l-45.353,0Z" style="fill:#231f20;fill-rule:nonzero;stroke:#fff;stroke-width:21.52px;stroke-linejoin:miter;"/></g><text x="2364.73px" y="863.45px" style="font-family:'Tele-Grotesk-Halb', 'Tele-GroteskHal';font-size:898.204px;fill:#ccc;">fr<tspan x="2855.93px 3288.37px " y="863.45px 863.45px ">om</tspan></text></g></svg>