<?xml version="1.0" encoding="UTF-8" standalone="no"?><!DOCTYPE svg PUBLIC "-//W3C//DTD SVG 1.1//EN" "http://www.w3.org/Graphics/SVG/1.1/DTD/svg11.dtd"><svg width="100%" height="100%" viewBox="0 0 230 230" version="1.1" xmlns="http://www.w3.org/2000/svg" xmlns:xlink="http://www.w3.org/1999/xlink" xml:space="preserve" xmlns:serif="http://www.serif.com/" style="fill-rule:evenodd;clip-rule:evenodd;stroke-linejoin:round;stroke-miterlimit:2;"><g><path d="M168.127,60.908c-38.736,-38.736 -89.026,-59.006 -139.883,-60.911l-0,28.431c43.579,1.879 86.616,19.336 119.815,52.548c33.261,33.261 50.743,76.399 52.572,120.067l28.406,-0.177c-1.88,-50.883 -22.162,-101.197 -60.91,-139.958Zm-139.883,-8.779l-0,28.43c30.247,1.829 59.964,14.165 83.021,37.222c23.121,23.121 35.457,52.939 37.235,83.274l28.431,0c-1.804,-37.6 -16.94,-74.684 -45.598,-103.341c-28.594,-28.608 -65.564,-43.731 -103.089,-45.585Zm-0,52.118l-0,28.507c16.889,1.715 33.325,8.905 46.228,21.808c12.979,12.979 20.169,29.503 21.834,46.481l28.506,-0c-1.753,-24.269 -11.768,-48.032 -30.272,-66.549c-18.441,-18.453 -42.116,-28.456 -66.296,-30.247Z" style="fill:#e20074;fill-rule:nonzero;"/><circle cx="28.244" cy="201.055" r="28.114" style="fill:#e20074;"/></g></svg>