<?xml version="1.0" encoding="UTF-8" standalone="no"?>
<svg
   xmlns:dc="http://purl.org/dc/elements/1.1/"
   xmlns:cc="http://creativecommons.org/ns#"
   xmlns:rdf="http://www.w3.org/1999/02/22-rdf-syntax-ns#"
   xmlns:svg="http://www.w3.org/2000/svg"
   xmlns="http://www.w3.org/2000/svg"
   xmlns:sodipodi="http://sodipodi.sourceforge.net/DTD/sodipodi-0.dtd"
   xmlns:inkscape="http://www.inkscape.org/namespaces/inkscape"
   width="780pc"
   height="286.5pc"
   viewBox="0 0 12480 4584"
   version="1.1"
   xml:space="preserve"
   style="clip-rule:evenodd;fill-rule:evenodd;stroke-linejoin:round;stroke-miterlimit:2"
   id="svg6"
   sodipodi:docname="skyline_color_Landscape.svg"
   inkscape:version="1.0.1 (3bc2e813f5, 2020-09-07)"><metadata
     id="metadata12"><rdf:RDF><cc:Work
         rdf:about=""><dc:format>image/svg+xml</dc:format><dc:type
           rdf:resource="http://purl.org/dc/dcmitype/StillImage" /><dc:title></dc:title></cc:Work></rdf:RDF></metadata><defs
     id="defs10" /><sodipodi:namedview
     pagecolor="#ffffff"
     bordercolor="#666666"
     borderopacity="1"
     objecttolerance="10"
     gridtolerance="10"
     guidetolerance="10"
     inkscape:pageopacity="0"
     inkscape:pageshadow="2"
     inkscape:window-width="1920"
     inkscape:window-height="1001"
     id="namedview8"
     showgrid="false"
     inkscape:document-units="pc"
     units="pc"
     inkscape:zoom="0.11337772"
     inkscape:cx="3301.2537"
     inkscape:cy="2013.8086"
     inkscape:window-x="-9"
     inkscape:window-y="-9"
     inkscape:window-maximized="1"
     inkscape:current-layer="svg6" /><path
     d="M 12480,4583.33 H 0 V 1805.55 H 127.1103 V 1313.651 H 693.33289 V 584.485 h 329.33421 v 144.676 h 329.3322 v 144.676 h 346.6665 v 723.379 h 312 v -376.157 h 762.6678 V 1961.8 h 219.5561 V 995.364 h 762.6658 v 601.852 h 231.1116 v -399.305 h 774.2213 v 208.333 l 184.8897,117.815 v 206.259 h 265.778 v -133.102 h 161.7768 v -335.648 h 486.4983 l 0.4713,-179.398 206.3633,-121.528 V 619.207 h 254.2226 V 312.494 h 34.6664 v 306.713 h 179.111 v 1221.07 h 317.7787 v -376.158 h 161.7768 v -81.018 l 427.5568,98.379 v -251.852 l 391.0932,-268.981 429.35,268.981 v 789.739 h 190.6684 v 127.623 h 262.8887 v -596.065 h 239.7777 v -237.269 h 268.6655 v -92.592 h 251.3332 v -410.88 h 34.6665 v 410.88 h 95.3352 v 92.592 H 9672 v 538.195 h 57.7774 v -167.824 l 543.1116,-185.185 v 353.009 h 577.778 v -289.352 h 335.111 v -179.398 l 647.111,266.204 V 1406.249 L 12480,1672.453 v 2910.88 z"
     style="fill-opacity:0.1;stroke-width:1.41308"
     id="path2" /><path
     d="M 0,4583.33 H 4367.4609 V 2868.92 h -63.5562 V 2602.475 H 4020.7924 V 2207.51 h -164.6661 v 78.366 h -164.6661 v 78.366 H 3518.126 v 391.83 h -156 V 2552.32 h -381.3329 v 401.235 H 2871.015 v -523.486 h -381.3329 v 326.003 h -115.5548 v -216.29 h -387.1116 v 112.847 l -92.4439,63.817 v 111.723 h -132.889 v -72.097 h -80.8904 v -181.809 h -243.2482 l -0.2356,-97.174 -103.1826,-65.828 v -184.944 h -127.1103 v -166.136 h -17.3342 v 166.136 h -89.5545 v 661.41 H 941.23761 v -203.751 h -80.88837 v -43.885 l -213.77741,53.288 V 2556.96 L 451.0252,2411.261 236.34924,2556.96 v 427.775 h -95.33323 v 69.129 H 0.0079872 v 1529.47 z m 4367.4609,0 H 12480 V 2868.92 h -82.628 v -266.445 h -368.07 V 2207.51 h -214.081 v 78.366 h -214.081 v 78.366 h -225.348 v 391.83 h -202.813 V 2552.32 h -495.768 v 401.235 h -142.719 v -523.486 h -495.768 v 326.003 h -150.2329 v -216.29 h -503.2775 v 112.847 l -120.1854,63.817 v 111.723 h -172.7671 v -72.097 h -105.1635 v -181.809 h -316.2452 l -0.3055,-97.174 -134.147,-65.828 v -184.944 h -165.2552 v -166.136 h -22.5339 v 166.136 h -116.4314 v 661.41 h -206.569 V 2683.976 H 7920.447 v -43.885 l -277.9286,53.288 V 2556.96 l -254.2286,-145.699 -279.0967,145.699 v 427.775 h -123.9414 v 69.129 h -170.8902 v -322.869 h -155.8662 v -128.52 H 6483.8512 V 2552.32 H 6320.473 v -222.559 h -22.5358 v 222.559 h -61.9707 v 50.155 h -43.1908 v 291.522 h -37.5578 v -90.905 l -353.0463,-100.309 v 191.214 h -375.5821 v -156.732 h -217.8369 v -97.174 l -420.6498,144.193 v -131.655 l -420.6499,144.194 v 1786.51 z"
     style="fill-opacity:0.1;stroke-width:1.41308"
     id="path4" /></svg>
