<?xml version="1.0" encoding="UTF-8" standalone="no"?><!DOCTYPE svg PUBLIC "-//W3C//DTD SVG 1.1//EN" "http://www.w3.org/Graphics/SVG/1.1/DTD/svg11.dtd"><svg width="100%" height="100%" viewBox="0 0 6250 4584" version="1.1" xmlns="http://www.w3.org/2000/svg" xmlns:xlink="http://www.w3.org/1999/xlink" xml:space="preserve" xmlns:serif="http://www.serif.com/" style="fill-rule:evenodd;clip-rule:evenodd;stroke-linejoin:round;stroke-miterlimit:2;"><path d="M6250,4583.33l-6250,0l0,-2777.78l63.657,0l0,-491.899l283.565,0l0,-729.166l164.931,0l0,144.676l164.93,0l0,144.676l173.611,0l0,723.379l156.25,0l0,-376.157l381.945,0l0,740.741l109.954,0l0,-966.436l381.944,0l0,601.852l115.741,0l0,-399.305l387.731,0l0,208.333l92.593,117.815l0,206.259l133.102,0l0,-133.102l81.018,0l0,-335.648l243.639,0l0.236,-179.398l103.347,-121.528l0,-341.435l127.315,0l0,-306.713l17.361,0l0,306.713l89.699,0l0,1221.07l159.144,0l0,-376.158l81.018,0l0,-81.018l214.121,98.379l0,-251.852l195.86,-268.981l215.019,268.981l0,789.739l95.487,0l0,127.623l131.655,0l0,-596.065l120.081,0l0,-237.269l134.548,0l0,-92.592l125.868,0l0,-410.88l17.361,0l0,410.88l47.744,0l0,92.592l33.275,0l0,538.195l28.935,0l0,-167.824l271.991,-185.185l0,353.009l289.352,0l0,-289.352l167.824,0l0,-179.398l324.074,266.204l0,-243.056l324.074,266.204l0,2910.88Z" style="fill-opacity:0.1;"/><path d="M0,4583.33l2187.23,0l0,-1714.41l-31.829,0l0,-266.445l-141.783,0l0,-394.965l-82.465,0l0,78.366l-82.465,0l0,78.366l-86.806,0l0,391.83l-78.125,0l0,-203.752l-190.972,0l0,401.235l-54.977,0l0,-523.486l-190.972,0l0,326.003l-57.87,0l0,-216.29l-193.866,0l0,112.847l-46.296,63.817l0,111.723l-66.551,0l0,-72.097l-40.51,0l0,-181.809l-121.819,0l-0.118,-97.174l-51.674,-65.828l0,-184.944l-63.657,0l0,-166.136l-8.681,0l0,166.136l-44.849,0l0,661.41l-79.572,0l0,-203.751l-40.509,0l0,-43.885l-107.06,53.288l0,-136.419l-97.93,-145.699l-107.51,145.699l0,427.775l-47.743,0l0,69.129l-70.617,0l0,1529.47Zm2187.23,0l4062.77,0l0,-1714.41l-41.38,0l0,-266.445l-184.33,0l0,-394.965l-107.212,0l0,78.366l-107.212,0l0,78.366l-112.855,0l0,391.83l-101.569,0l0,-203.752l-248.281,0l0,401.235l-71.474,0l0,-523.486l-248.281,0l0,326.003l-75.237,0l0,-216.29l-252.042,0l0,112.847l-60.189,63.817l0,111.723l-86.522,0l0,-72.097l-52.666,0l0,-181.809l-158.376,0l-0.153,-97.174l-67.181,-65.828l0,-184.944l-82.76,0l0,-166.136l-11.285,0l0,166.136l-58.309,0l0,661.41l-103.45,0l0,-203.751l-52.666,0l0,-43.885l-139.187,53.288l0,-136.419l-127.318,-145.699l-139.772,145.699l0,427.775l-62.07,0l0,69.129l-85.582,0l0,-322.869l-78.058,0l0,-128.52l-87.462,0l0,-50.155l-81.82,0l0,-222.559l-11.286,0l0,222.559l-31.035,0l0,50.155l-21.63,0l0,291.522l-18.809,0l0,-90.905l-176.806,-100.309l0,191.214l-188.092,0l0,-156.732l-109.093,0l0,-97.174l-210.662,144.193l0,-131.655l-210.662,144.194l0,1786.51Z" style="fill-opacity:0.1;"/></svg>