<?xml version="1.0" encoding="UTF-8" standalone="no"?><!DOCTYPE svg PUBLIC "-//W3C//DTD SVG 1.1//EN" "http://www.w3.org/Graphics/SVG/1.1/DTD/svg11.dtd"><svg width="100%" height="100%" viewBox="0 0 26042 19100" version="1.1" xmlns="http://www.w3.org/2000/svg" xmlns:xlink="http://www.w3.org/1999/xlink" xml:space="preserve" xmlns:serif="http://www.serif.com/" style="fill-rule:evenodd;clip-rule:evenodd;stroke-linejoin:round;stroke-miterlimit:2;"><path d="M26041.7,19097.2l-26041.7,0l0,-11574.1l265.238,0l0,-2049.58l1181.52,0l0,-3038.19l687.213,0l0,602.817l687.208,0l0,602.817l723.379,0l0,3014.08l651.042,0l0,-1567.32l1591.44,0l0,3086.42l458.141,0l0,-4026.82l1591.43,0l0,2507.72l482.254,0l0,-1663.77l1615.55,0l-0.001,868.054l385.805,490.896l0,859.412l554.591,0l0,-554.591l337.575,0l0,-1398.53l1015.16,0l0.983,-747.491l430.613,-506.367l0,-1422.65l530.479,0l0,-1277.97l72.337,0l0,1277.97l373.746,0l0,5087.79l663.1,0l0,-1567.33l337.575,0l0,-337.575l892.171,409.912l0,-1049.38l816.083,-1120.75l895.913,1120.75l0,3290.58l397.862,0l0,531.763l548.563,0l0,-2483.61l500.337,0l0,-988.62l560.617,0l0,-385.8l524.45,0l0,-1712l72.338,0l0,1712l198.933,0l0,385.8l138.646,0l0,2242.48l120.562,0l0,-699.267l1133.3,-771.604l0,1470.87l1205.63,0l0,-1205.63l699.267,0l0,-747.491l1350.31,1109.18l0,-1012.73l1350.31,1109.18l0,12128.7l0,-0.013Z" style="fill:#fff;fill-opacity:0.1;"/><path d="M0,19097.2l9113.46,0l0,-7143.38l-132.621,0l0,-1110.19l-590.762,0l0,-1645.69l-343.604,0l0,326.525l-343.604,0l0,326.525l-361.692,0l0,1632.63l-325.521,0l0,-848.966l-795.716,0l0,1671.81l-229.071,0l0,-2181.19l-795.717,0l0,1358.35l-241.125,0l0,-901.208l-807.775,0l0,470.196l-192.9,265.904l0,465.513l-277.296,0l0,-300.405l-168.792,0l0,-757.537l-507.579,0l-0.491,-404.892l-215.309,-274.283l0,-770.6l-265.237,0l0,-692.233l-36.171,0l0,692.233l-186.871,0l0,2755.88l-331.55,0l0,-848.963l-168.787,0l0,-182.854l-446.084,222.034l0,-568.413l-408.041,-607.079l-447.959,607.079l0,1782.4l-198.929,0l0,288.037l-294.237,0l0,6372.79l-0.017,-0.017Zm9113.46,0l16928.2,0l0,-7143.38l-172.417,0l0,-1110.19l-768.042,0l0,-1645.69l-446.716,0l0,326.525l-446.717,0l0,326.525l-470.229,0l0,1632.63l-423.204,0l0,-848.966l-1034.5,0l0,1671.81l-297.809,0l0,-2181.19l-1034.5,0l0,1358.35l-313.487,0l0,-901.208l-1050.17,0l0,470.196l-250.788,265.904l0,465.513l-360.508,0l0,-300.405l-219.442,0l0,-757.537l-659.9,0l-0.638,-404.892l-279.92,-274.283l0,-770.6l-344.834,0l0,-692.233l-47.021,0l0,692.233l-242.954,0l0,2755.88l-431.041,0l0,-848.963l-219.442,0l0,-182.854l-579.946,222.034l0,-568.413l-530.492,-607.079l-582.383,607.079l0,1782.4l-258.625,0l0,288.037l-356.592,0l0.001,-1345.29l-325.242,0l0,-535.5l-364.425,0l0,-208.979l-340.917,0l0,-927.33l-47.025,0l0,927.33l-129.312,0l0,208.979l-90.125,0l0,1214.67l-78.371,0l0,-378.771l-736.692,-417.954l0,796.725l-783.717,0l0,-653.05l-454.554,0l0,-404.892l-877.758,600.804l0,-548.562l-877.758,600.808l0,7443.79l0.016,-0.013Z" style="fill:#fff;fill-opacity:0.1;"/></svg>