<?xml version="1.0" encoding="utf-8"?>
<!-- Generator: Adobe Illustrator 16.0.3, SVG Export Plug-In . SVG Version: 6.00 Build 0)  -->
<!DOCTYPE svg PUBLIC "-//W3C//DTD SVG 1.1//EN" "http://www.w3.org/Graphics/SVG/1.1/DTD/svg11.dtd">
<svg version="1.1" id="Ebene_1" xmlns:serif="http://www.serif.com/"
	 xmlns="http://www.w3.org/2000/svg" xmlns:xlink="http://www.w3.org/1999/xlink" x="0px" y="0px" width="1000px" height="1000px"
	 viewBox="0 0 1000 1000" enable-background="new 0 0 1000 1000" xml:space="preserve">
<path fill-opacity="0.1" d="M1000,1000.613H0V350.64h10.185v-115.1h45.371V64.922h26.389v33.853h26.389v33.853h27.777v169.264h25
	v-88.018h61.111v173.328h17.593V161.065h61.111v140.827h18.519v-93.434h62.036v48.748l14.815,27.568v48.262h21.296v-31.144h12.963
	v-78.539h38.982l0.038-41.977l16.535-28.436V73.047h20.37V1.279h2.778v71.768h14.352v285.719h25.463v-88.018h12.963V251.79
	l34.26,23.021v-58.932l31.338-62.937l34.402,62.937V400.67h15.278v29.864h21.064V291.06h19.213v-55.519h21.528v-21.667h20.139
	v-96.141h2.777v96.141h7.64v21.667h5.323v125.933h4.63v-39.27l43.519-43.332v82.602h46.297v-67.706h26.852V251.79l51.852,62.29
	v-56.873L1000,319.496V1000.613L1000,1000.613z"/>
<path fill-opacity="0.1" d="M0,1000.113h349.956V602.484h-5.093v-61.796h-22.685v-91.605h-13.194v18.175H295.79v18.176h-13.89
	v90.877h-12.5v-47.257h-30.555v93.061h-8.797V500.702h-30.556v75.609h-9.259v-50.164h-31.019v26.173l-7.407,14.802v25.91H141.16
	v-16.721h-6.481v-42.167h-19.491l-0.019-22.538l-8.269-15.267v-42.895H96.716v-38.533h-1.389v38.533h-7.176v153.402H75.419v-47.256
	h-6.481v-10.178l-17.129,12.358V530.13L36.14,496.339L18.938,530.13v99.216h-7.639v16.034H0V1000.113L0,1000.113z M349.956,1000.113
	H1000V602.484h-6.621v-61.796h-29.493v-91.605h-17.153v18.175h-17.154v18.176h-18.057v90.877h-16.251v-47.257h-39.726v93.061H844.11
	V500.702h-39.725v75.609h-12.038v-50.164H752.02v26.173l-9.63,14.802v25.91h-13.844v-16.721h-8.427v-42.167h-25.34l-0.024-22.538
	l-10.749-15.267v-42.895h-13.241v-38.533h-1.806v38.533h-9.33v153.402h-16.552v-47.256h-8.427v-10.178l-22.27,12.358V530.13
	l-20.371-33.791l-22.363,33.791v99.216h-9.932v16.034h-13.692v-74.884h-12.489v-29.808h-13.994v-11.634h-13.092v-51.618h-1.806
	v51.618h-4.965v11.634h-3.461v67.613h-3.01v-21.084l-28.289-23.266v44.35h-30.095v-36.351h-17.455v-22.538l-33.705,33.442V552.32
	l-33.706,33.443V1000.113L349.956,1000.113z"/>
</svg>
